<svg width="247" height="160" viewBox="0 0 247 160" fill="none" xmlns="http://www.w3.org/2000/svg">
<path d="M47.3123 0H14.3188L49.0488 113.433H82.0423L47.3123 0Z" fill="url(#paint0_linear_1_106)"/>
<path d="M151.502 113.433L116.772 0L100.276 54.0987L118.509 113.433H151.502Z" fill="url(#paint1_linear_1_106)"/>
<path d="M82.0423 113.433L65.5456 59.3341L83.7788 0H116.772L82.0423 113.433Z" fill="url(#paint2_linear_1_106)"/>
<path d="M151.502 113.433L135.005 59.3341L153.239 0H186.232L151.502 113.433Z" fill="url(#paint3_linear_1_106)"/>
<path d="M225.304 77.6579L207.939 58.4615L165.394 80.2756L154.975 113.433L225.304 77.6579Z" fill="url(#paint4_linear_1_106)"/>
<path d="M227.908 48.8634L186.232 0L178.133 26.5108L225.303 77.6579L227.908 48.8634Z" fill="url(#paint5_linear_1_106)"/>
<path d="M39.1937 135.528L31.1728 159.588H25.0784L19.6844 143.296L14.1153 159.588H8.0559L0 135.528H5.88431L11.4184 152.438L17.1976 135.528H22.4514L28.0555 152.576L33.7647 135.528H39.1937Z" fill="#EF3A01"/>
<path d="M49.2994 159.863C47.3146 159.863 45.5283 159.462 43.9405 158.66C42.376 157.835 41.1501 156.7 40.2628 155.257C39.3755 153.813 38.9318 152.175 38.9318 150.342C38.9318 148.509 39.3755 146.87 40.2628 145.427C41.1501 143.983 42.376 142.86 43.9405 142.058C45.5283 141.233 47.3146 140.821 49.2994 140.821C51.2842 140.821 53.0588 141.233 54.6233 142.058C56.1878 142.86 57.4137 143.983 58.301 145.427C59.1883 146.87 59.632 148.509 59.632 150.342C59.632 152.175 59.1883 153.813 58.301 155.257C57.4137 156.7 56.1878 157.835 54.6233 158.66C53.0588 159.462 51.2842 159.863 49.2994 159.863ZM49.2994 155.463C50.7004 155.463 51.8446 155.005 52.7319 154.088C53.6426 153.149 54.0979 151.9 54.0979 150.342C54.0979 148.783 53.6426 147.546 52.7319 146.63C51.8446 145.69 50.7004 145.22 49.2994 145.22C47.8984 145.22 46.7425 145.69 45.8319 146.63C44.9212 147.546 44.4659 148.783 44.4659 150.342C44.4659 151.9 44.9212 153.149 45.8319 154.088C46.7425 155.005 47.8984 155.463 49.2994 155.463Z" fill="#EF3A01"/>
<path d="M68.2622 143.536C68.916 142.642 69.7917 141.967 70.8892 141.508C72.01 141.05 73.2942 140.821 74.742 140.821V145.77C74.1349 145.724 73.7262 145.702 73.5161 145.702C71.9516 145.702 70.7257 146.137 69.8384 147.008C68.9511 147.855 68.5074 149.139 68.5074 150.857V159.588H63.0434V141.096H68.2622V143.536Z" fill="#EF3A01"/>
<path d="M77.7501 134.084H83.2141V159.588H77.7501V134.084Z" fill="#EF3A01"/>
<path d="M107.238 134.084V159.588H102.02V157.457C100.665 159.061 98.7038 159.863 96.1353 159.863C94.3606 159.863 92.7494 159.473 91.3017 158.694C89.8773 157.915 88.7565 156.803 87.9393 155.36C87.122 153.916 86.7134 152.244 86.7134 150.342C86.7134 148.44 87.122 146.767 87.9393 145.323C88.7565 143.88 89.8773 142.769 91.3017 141.989C92.7494 141.21 94.3606 140.821 96.1353 140.821C98.5403 140.821 100.42 141.566 101.774 143.055V134.084H107.238ZM97.0809 155.463C98.4586 155.463 99.6028 155.005 100.513 154.088C101.424 153.149 101.879 151.9 101.879 150.342C101.879 148.783 101.424 147.546 100.513 146.63C99.6028 145.69 98.4586 145.22 97.0809 145.22C95.6799 145.22 94.5241 145.69 93.6134 146.63C92.7027 147.546 92.2474 148.783 92.2474 150.342C92.2474 151.9 92.7027 153.149 93.6134 154.088C94.5241 155.005 95.6799 155.463 97.0809 155.463Z" fill="#EF3A01"/>
<path d="M124.174 160C121.675 160 119.41 159.473 117.379 158.419C115.37 157.342 113.783 155.864 112.615 153.985C111.471 152.083 110.899 149.941 110.899 147.558C110.899 145.175 111.471 143.043 112.615 141.165C113.783 139.263 115.37 137.785 117.379 136.731C119.41 135.654 121.687 135.115 124.209 135.115C126.333 135.115 128.248 135.482 129.953 136.215C131.681 136.948 133.128 138.002 134.296 139.377L130.653 142.677C128.995 140.798 126.941 139.858 124.489 139.858C122.971 139.858 121.617 140.191 120.426 140.855C119.235 141.497 118.301 142.402 117.624 143.571C116.97 144.739 116.643 146.068 116.643 147.558C116.643 149.047 116.97 150.376 117.624 151.545C118.301 152.713 119.235 153.63 120.426 154.294C121.617 154.936 122.971 155.257 124.489 155.257C126.941 155.257 128.995 154.306 130.653 152.404L134.296 155.704C133.128 157.101 131.681 158.167 129.953 158.9C128.225 159.633 126.298 160 124.174 160Z" fill="#EF3A01"/>
<path d="M137.502 141.096H142.966V159.588H137.502V141.096ZM140.234 138.518C139.23 138.518 138.412 138.232 137.782 137.659C137.151 137.086 136.836 136.375 136.836 135.528C136.836 134.68 137.151 133.969 137.782 133.397C138.412 132.824 139.23 132.537 140.234 132.537C141.238 132.537 142.055 132.812 142.685 133.362C143.316 133.912 143.631 134.6 143.631 135.425C143.631 136.318 143.316 137.063 142.685 137.659C142.055 138.232 141.238 138.518 140.234 138.518Z" fill="#EF3A01"/>
<path d="M159.249 140.821C161.584 140.821 163.464 141.508 164.888 142.883C166.336 144.258 167.06 146.297 167.06 149.001V159.588H161.596V149.826C161.596 148.36 161.269 147.271 160.615 146.561C159.961 145.828 159.016 145.461 157.778 145.461C156.401 145.461 155.303 145.885 154.486 146.733C153.669 147.558 153.26 148.795 153.26 150.445V159.588H147.796V141.096H153.015V143.261C153.739 142.482 154.638 141.886 155.712 141.474C156.786 141.038 157.965 140.821 159.249 140.821Z" fill="#EF3A01"/>
<path d="M190.436 150.41C190.436 150.479 190.401 150.96 190.331 151.854H176.075C176.332 153 176.939 153.905 177.897 154.569C178.854 155.234 180.045 155.566 181.469 155.566C182.45 155.566 183.314 155.429 184.061 155.154C184.832 154.856 185.544 154.397 186.198 153.779L189.105 156.872C187.33 158.866 184.738 159.863 181.329 159.863C179.204 159.863 177.325 159.462 175.69 158.66C174.055 157.835 172.795 156.7 171.907 155.257C171.02 153.813 170.576 152.175 170.576 150.342C170.576 148.531 171.008 146.905 171.872 145.461C172.759 143.994 173.962 142.86 175.48 142.058C177.021 141.233 178.737 140.821 180.629 140.821C182.473 140.821 184.143 141.21 185.637 141.989C187.132 142.769 188.299 143.891 189.14 145.358C190.004 146.801 190.436 148.486 190.436 150.41ZM180.664 144.877C179.426 144.877 178.387 145.22 177.546 145.908C176.706 146.595 176.192 147.535 176.005 148.726H185.287C185.1 147.558 184.586 146.63 183.746 145.942C182.905 145.232 181.878 144.877 180.664 144.877Z" fill="#EF3A01"/>
<path d="M217.965 140.821C220.324 140.821 222.192 141.508 223.569 142.883C224.971 144.235 225.671 146.274 225.671 149.001V159.588H220.207V149.826C220.207 148.36 219.892 147.271 219.261 146.561C218.654 145.828 217.779 145.461 216.634 145.461C215.35 145.461 214.334 145.873 213.587 146.698C212.84 147.5 212.466 148.703 212.466 150.307V159.588H207.002V149.826C207.002 146.916 205.811 145.461 203.43 145.461C202.169 145.461 201.165 145.873 200.418 146.698C199.67 147.5 199.297 148.703 199.297 150.307V159.588H193.833V141.096H199.052V143.227C199.752 142.448 200.604 141.852 201.608 141.439C202.636 141.027 203.757 140.821 204.971 140.821C206.302 140.821 207.504 141.084 208.579 141.611C209.653 142.115 210.517 142.86 211.17 143.845C211.941 142.883 212.91 142.138 214.078 141.611C215.268 141.084 216.564 140.821 217.965 140.821Z" fill="#EF3A01"/>
<path d="M237.928 140.821C240.847 140.821 243.089 141.508 244.653 142.883C246.218 144.235 247 146.286 247 149.036V159.588H241.886V157.285C240.859 159.003 238.944 159.863 236.142 159.863C234.694 159.863 233.433 159.622 232.359 159.141C231.309 158.66 230.503 157.995 229.943 157.147C229.382 156.299 229.102 155.337 229.102 154.26C229.102 152.541 229.756 151.189 231.063 150.204C232.394 149.219 234.437 148.726 237.193 148.726H241.536C241.536 147.558 241.174 146.664 240.45 146.045C239.726 145.404 238.641 145.083 237.193 145.083C236.189 145.083 235.196 145.243 234.216 145.564C233.258 145.862 232.441 146.274 231.764 146.801L229.802 143.055C230.83 142.345 232.056 141.795 233.48 141.405C234.928 141.016 236.411 140.821 237.928 140.821ZM237.508 156.254C238.442 156.254 239.271 156.047 239.995 155.635C240.719 155.199 241.232 154.569 241.536 153.744V151.854H237.788C235.547 151.854 234.426 152.576 234.426 154.019C234.426 154.707 234.694 155.257 235.231 155.669C235.792 156.059 236.551 156.254 237.508 156.254Z" fill="#EF3A01"/>
<defs>
<linearGradient id="paint0_linear_1_106" x1="32.5521" y1="-9.46557e-07" x2="66.7228" y2="113.34" gradientUnits="userSpaceOnUse">
<stop stop-color="#FF5823"/>
<stop offset="1" stop-color="#EF3A01"/>
</linearGradient>
<linearGradient id="paint1_linear_1_106" x1="108.09" y1="28.7945" x2="134.374" y2="113.359" gradientUnits="userSpaceOnUse">
<stop stop-color="#DF2800"/>
<stop offset="1" stop-color="#FD5019"/>
</linearGradient>
<linearGradient id="paint2_linear_1_106" x1="99.4073" y1="-5.13221e-07" x2="72.2487" y2="84.5603" gradientUnits="userSpaceOnUse">
<stop stop-color="#FF5D2B"/>
<stop offset="1" stop-color="#DF2800"/>
</linearGradient>
<linearGradient id="paint3_linear_1_106" x1="169.735" y1="-7.0649e-07" x2="142.576" y2="85.4335" gradientUnits="userSpaceOnUse">
<stop stop-color="#FF5925"/>
<stop offset="1" stop-color="#DF2800"/>
</linearGradient>
<linearGradient id="paint4_linear_1_106" x1="214.885" y1="67.1871" x2="159.196" y2="96.6257" gradientUnits="userSpaceOnUse">
<stop stop-color="#DF2800"/>
<stop offset="1" stop-color="#FF5520"/>
</linearGradient>
<linearGradient id="paint5_linear_1_106" x1="175.813" y1="3.49023" x2="227.337" y2="64.318" gradientUnits="userSpaceOnUse">
<stop stop-color="#DF2800"/>
<stop offset="1" stop-color="#FF5D29"/>
</linearGradient>
</defs>
</svg>
